<?xml version="1.0" encoding="UTF-8"?>
<svg id="Layer_1" xmlns="http://www.w3.org/2000/svg" version="1.1" viewBox="0 0 27.7 32">
  <!-- Generator: Adobe Illustrator 30.1.0, SVG Export Plug-In . SVG Version: 2.1.1 Build 136)  -->
  <defs>
    <style>
      .st0 {
        fill: #23a6f0;
      }
    </style>
  </defs>
  <path class="st0" d="M20.8,20.3h0c.3.6.5,1.2.5,1.9s-.3,1.8-.9,2.3c-.7.7-1.5.9-2.3.9H6.4v-4.8c-3.1,0-5.5,2.4-5.5,5.5v4.8h17.1c5,0,8.9-3.9,8.9-8.9s-.5-3.3-1.2-4.5c-1.4,1.3-3,2.3-4.8,2.7Z"/>
  <path class="st0" d="M26.9,9.7c0-4.8-3.9-8.7-8.9-8.7H.8v4.8c0,3.1,2.4,5.5,5.5,5.5v-4.8h11.5c.9,0,1.8.3,2.4.9s.9,1.5.9,2.3-.3,1.8-.9,2.3c-.7.7-1.5.9-2.3.9H.8v5.5h17.1c5,0,8.9-3.9,8.9-8.9Z"/>
</svg>